<?xml version="1.0" encoding="UTF-8" standalone="no"?>
<svg width="800" height="400" xmlns="http://www.w3.org/2000/svg">
  <defs>
    <linearGradient id="skyGrad3" x1="0%" y1="0%" x2="0%" y2="100%">
      <stop offset="0%" style="stop-color:#c5cae9;stop-opacity:1" />
      <stop offset="100%" style="stop-color:#e8eaf6;stop-opacity:1" />
    </linearGradient>
  </defs>
  
  <!-- 背景 -->
  <rect width="800" height="400" fill="url(#skyGrad3)" />
  
  <!-- 地面 -->
  <rect x="0" y="320" width="800" height="80" fill="#c5e1a5" />
  
  <!-- 城市建筑 -->
  <rect x="50" y="50" width="150" height="270" fill="#e0e0e0" stroke="#bdbdbd" stroke-width="2" />
  <rect x="600" y="100" width="150" height="220" fill="#e0e0e0" stroke="#bdbdbd" stroke-width="2" />
  
  <!-- 窗户 -->
  <rect x="70" y="80" width="30" height="30" fill="#90caf9" />
  <rect x="120" y="80" width="30" height="30" fill="#90caf9" />
  <rect x="70" y="130" width="30" height="30" fill="#90caf9" />
  <rect x="120" y="130" width="30" height="30" fill="#90caf9" />
  <rect x="70" y="180" width="30" height="30" fill="#90caf9" />
  <rect x="120" y="180" width="30" height="30" fill="#90caf9" />
  <rect x="70" y="230" width="30" height="30" fill="#90caf9" />
  <rect x="120" y="230" width="30" height="30" fill="#90caf9" />
  
  <rect x="620" y="130" width="30" height="30" fill="#90caf9" />
  <rect x="670" y="130" width="30" height="30" fill="#90caf9" />
  <rect x="620" y="180" width="30" height="30" fill="#90caf9" />
  <rect x="670" y="180" width="30" height="30" fill="#90caf9" />
  <rect x="620" y="230" width="30" height="30" fill="#90caf9" />
  <rect x="670" y="230" width="30" height="30" fill="#90caf9" />
  
  <!-- 路面 -->
  <rect x="0" y="320" width="800" height="5" fill="#9e9e9e" />
  <rect x="350" y="325" width="100" height="75" fill="#bdbdbd" />
  
  <!-- 主要回收箱 -->
  <rect x="350" y="200" width="100" height="120" rx="10" ry="10" fill="#2e7d32" stroke="#1b5e20" stroke-width="3" />
  
  <!-- 回收箱顶部 -->
  <rect x="340" y="190" width="120" height="10" rx="5" ry="5" fill="#1b5e20" />
  
  <!-- 太阳能电池板 -->
  <rect x="370" y="170" width="60" height="20" fill="#1a237e" stroke="#0d47a1" stroke-width="1" />
  <line x1="380" y1="170" x2="380" y2="190" stroke="#3f51b5" stroke-width="1" />
  <line x1="390" y1="170" x2="390" y2="190" stroke="#3f51b5" stroke-width="1" />
  <line x1="400" y1="170" x2="400" y2="190" stroke="#3f51b5" stroke-width="1" />
  <line x1="410" y1="170" x2="410" y2="190" stroke="#3f51b5" stroke-width="1" />
  <line x1="420" y1="170" x2="420" y2="190" stroke="#3f51b5" stroke-width="1" />
  
  <!-- 屏幕显示器 -->
  <rect x="375" y="220" width="50" height="30" fill="#212121" stroke="#484848" stroke-width="1" />
  <rect x="380" y="225" width="40" height="20" fill="#4fc3f7" />
  
  <!-- 投入口 -->
  <rect x="375" y="260" width="50" height="10" fill="#1b5e20" />
  <rect x="380" y="270" width="40" height="5" fill="#000000" fill-opacity="0.3" />
  
  <!-- 智能回收标志 -->
  <circle cx="400" cy="300" r="12" fill="#ffffff" />
  <path d="M400,292 L395,305 L405,305 Z" fill="#2e7d32" />
  <path d="M395,297 L400,310 L390,310 Z" fill="#2e7d32" transform="rotate(120 395 303)" />
  <path d="M405,297 L410,310 L400,310 Z" fill="#2e7d32" transform="rotate(240 405 303)" />
  
  <!-- 状态指示灯 -->
  <circle cx="400" cy="210" r="5" fill="#f44336" />
</svg> 