<?xml version="1.0" encoding="UTF-8" standalone="no"?>
<svg width="300" height="300" xmlns="http://www.w3.org/2000/svg">
  <defs>
    <linearGradient id="smokeGrad" x1="0%" y1="0%" x2="100%" y2="0%">
      <stop offset="0%" style="stop-color:#78909c;stop-opacity:0.8" />
      <stop offset="100%" style="stop-color:#b0bec5;stop-opacity:0" />
    </linearGradient>
    <linearGradient id="filterGrad" x1="0%" y1="0%" x2="0%" y2="100%">
      <stop offset="0%" style="stop-color:#f5f5f5;stop-opacity:1" />
      <stop offset="100%" style="stop-color:#e0e0e0;stop-opacity:1" />
    </linearGradient>
    <linearGradient id="tobaccoGrad" x1="0%" y1="0%" x2="100%" y2="0%">
      <stop offset="0%" style="stop-color:#d7ccc8;stop-opacity:1" />
      <stop offset="100%" style="stop-color:#a1887f;stop-opacity:1" />
    </linearGradient>
  </defs>
  <g>
    <!-- 背景 -->
    <rect width="300" height="300" fill="#f5f5f5" opacity="0.5" />
    
    <!-- 主烟蒂 -->
    <g transform="rotate(30 150 150)">
      <!-- 烟草部分 -->
      <rect x="40" y="140" width="150" height="20" rx="2" ry="2" fill="url(#tobaccoGrad)" />
      <line x1="60" y1="140" x2="60" y2="160" stroke="#8d6e63" stroke-width="0.5" />
      <line x1="80" y1="140" x2="80" y2="160" stroke="#8d6e63" stroke-width="0.5" />
      <line x1="100" y1="140" x2="100" y2="160" stroke="#8d6e63" stroke-width="0.5" />
      <line x1="120" y1="140" x2="120" y2="160" stroke="#8d6e63" stroke-width="0.5" />
      <line x1="140" y1="140" x2="140" y2="160" stroke="#8d6e63" stroke-width="0.5" />
      <line x1="160" y1="140" x2="160" y2="160" stroke="#8d6e63" stroke-width="0.5" />
      
      <!-- 烟灰 -->
      <path d="M40,140 C40,135 35,145 40,140" fill="#9e9e9e" />
      <path d="M40,140 C40,140 35,150 40,160 L40,140" fill="#616161" />
      
      <!-- 过滤嘴 -->
      <rect x="190" y="140" width="50" height="20" rx="2" ry="2" fill="url(#filterGrad)" />
      <rect x="190" y="140" width="3" height="20" fill="#ffcc80" />
      
      <!-- 连接处 -->
      <rect x="190" y="140" width="3" height="20" fill="#ffcc80" />
      
      <!-- 接缝 -->
      <line x1="190" y1="140" x2="190" y2="160" stroke="#bdbdbd" stroke-width="1" />
    </g>
    
    <!-- 第二个烟蒂 -->
    <g transform="rotate(-15 220 220)">
      <!-- 烟草部分 -->
      <rect x="170" y="220" width="100" height="15" rx="2" ry="2" fill="url(#tobaccoGrad)" />
      <line x1="190" y1="220" x2="190" y2="235" stroke="#8d6e63" stroke-width="0.5" />
      <line x1="210" y1="220" x2="210" y2="235" stroke="#8d6e63" stroke-width="0.5" />
      <line x1="230" y1="220" x2="230" y2="235" stroke="#8d6e63" stroke-width="0.5" />
      <line x1="250" y1="220" x2="250" y2="235" stroke="#8d6e63" stroke-width="0.5" />
      
      <!-- 烟灰 -->
      <path d="M170,220 C170,218 167,225 170,220" fill="#9e9e9e" />
      <path d="M170,220 C170,220 167,225 170,235 L170,220" fill="#616161" />
      
      <!-- 过滤嘴 -->
      <rect x="270" y="220" width="30" height="15" rx="2" ry="2" fill="url(#filterGrad)" />
      <rect x="270" y="220" width="2" height="15" fill="#ffcc80" />
      
      <!-- 接缝 -->
      <line x1="270" y1="220" x2="270" y2="235" stroke="#bdbdbd" stroke-width="1" />
    </g>
    
    <!-- 第三个烟蒂残段 -->
    <g transform="rotate(75 80 220)">
      <!-- 过滤嘴 -->
      <rect x="60" y="220" width="40" height="15" rx="2" ry="2" fill="url(#filterGrad)" />
      <rect x="60" y="220" width="2" height="15" fill="#ffcc80" />
      <rect x="60" y="220" width="10" height="15" rx="0" ry="0" fill="url(#tobaccoGrad)" />
      <line x1="70" y1="220" x2="70" y2="235" stroke="#bdbdbd" stroke-width="1" />
    </g>
    
    <!-- 烟灰 -->
    <circle cx="70" cy="80" r="15" fill="#9e9e9e" />
    <circle cx="75" cy="85" r="7" fill="#616161" />
    <circle cx="65" cy="75" r="5" fill="#bdbdbd" />
    
    <!-- 烟雾 -->
    <path d="M40,75 C20,65 30,55 45,60 C60,45 80,60 70,70 C90,60 90,80 70,80" fill="url(#smokeGrad)" opacity="0.5" />
    <path d="M130,60 C110,50 120,40 135,45 C150,30 170,45 160,55 C180,45 180,65 160,65" fill="url(#smokeGrad)" opacity="0.3" />
  </g>
</svg> 