<?xml version="1.0" encoding="UTF-8" standalone="no"?>
<svg width="300" height="300" xmlns="http://www.w3.org/2000/svg">
  <defs>
    <linearGradient id="plasticGrad" x1="0%" y1="0%" x2="100%" y2="100%">
      <stop offset="0%" style="stop-color:#f5f5f5;stop-opacity:1" />
      <stop offset="100%" style="stop-color:#e0e0e0;stop-opacity:1" />
    </linearGradient>
    <linearGradient id="woodGrad" x1="0%" y1="0%" x2="100%" y2="100%">
      <stop offset="0%" style="stop-color:#d7ccc8;stop-opacity:1" />
      <stop offset="100%" style="stop-color:#a1887f;stop-opacity:1" />
    </linearGradient>
  </defs>
  <g>
    <!-- 背景 -->
    <rect width="300" height="300" fill="#f5f5f5" opacity="0.5" />
    
    <!-- 塑料叉子 -->
    <g transform="rotate(10 100 150)">
      <!-- 叉子尖头 -->
      <rect x="50" y="40" width="10" height="80" rx="5" ry="5" fill="url(#plasticGrad)" />
      <rect x="70" y="40" width="10" height="80" rx="5" ry="5" fill="url(#plasticGrad)" />
      <rect x="90" y="40" width="10" height="80" rx="5" ry="5" fill="url(#plasticGrad)" />
      
      <!-- 叉子中间部分 -->
      <rect x="50" y="120" width="50" height="20" rx="5" ry="5" fill="url(#plasticGrad)" />
      
      <!-- 叉柄 -->
      <rect x="60" y="140" width="30" height="100" rx="5" ry="5" fill="url(#plasticGrad)" />
    </g>
    
    <!-- 木质筷子 -->
    <g transform="rotate(-15 220 150)">
      <!-- 第一根筷子 -->
      <rect x="190" y="40" width="8" height="200" rx="4" ry="4" fill="url(#woodGrad)" />
      <line x1="194" y1="40" x2="194" y2="240" stroke="#8d6e63" stroke-width="0.5" />
      <line x1="191" y1="60" x2="197" y2="60" stroke="#8d6e63" stroke-width="0.5" />
      <line x1="191" y1="80" x2="197" y2="80" stroke="#8d6e63" stroke-width="0.5" />
      <line x1="191" y1="100" x2="197" y2="100" stroke="#8d6e63" stroke-width="0.5" />
      <line x1="191" y1="120" x2="197" y2="120" stroke="#8d6e63" stroke-width="0.5" />
      <line x1="191" y1="140" x2="197" y2="140" stroke="#8d6e63" stroke-width="0.5" />
      <line x1="191" y1="160" x2="197" y2="160" stroke="#8d6e63" stroke-width="0.5" />
      <line x1="191" y1="180" x2="197" y2="180" stroke="#8d6e63" stroke-width="0.5" />
      <line x1="191" y1="200" x2="197" y2="200" stroke="#8d6e63" stroke-width="0.5" />
      <line x1="191" y1="220" x2="197" y2="220" stroke="#8d6e63" stroke-width="0.5" />
      
      <!-- 第二根筷子 -->
      <rect x="210" y="40" width="8" height="200" rx="4" ry="4" fill="url(#woodGrad)" />
      <line x1="214" y1="40" x2="214" y2="240" stroke="#8d6e63" stroke-width="0.5" />
      <line x1="211" y1="60" x2="217" y2="60" stroke="#8d6e63" stroke-width="0.5" />
      <line x1="211" y1="80" x2="217" y2="80" stroke="#8d6e63" stroke-width="0.5" />
      <line x1="211" y1="100" x2="217" y2="100" stroke="#8d6e63" stroke-width="0.5" />
      <line x1="211" y1="120" x2="217" y2="120" stroke="#8d6e63" stroke-width="0.5" />
      <line x1="211" y1="140" x2="217" y2="140" stroke="#8d6e63" stroke-width="0.5" />
      <line x1="211" y1="160" x2="217" y2="160" stroke="#8d6e63" stroke-width="0.5" />
      <line x1="211" y1="180" x2="217" y2="180" stroke="#8d6e63" stroke-width="0.5" />
      <line x1="211" y1="200" x2="217" y2="200" stroke="#8d6e63" stroke-width="0.5" />
      <line x1="211" y1="220" x2="217" y2="220" stroke="#8d6e63" stroke-width="0.5" />
    </g>
    
    <!-- 塑料勺子 -->
    <g transform="rotate(-20 140 250)">
      <!-- 勺子头部 -->
      <ellipse cx="140" cy="250" rx="25" ry="20" fill="url(#plasticGrad)" />
      
      <!-- 勺柄 -->
      <rect x="140" y="170" width="12" height="60" rx="6" ry="6" fill="url(#plasticGrad)" />
    </g>
    
    <!-- 塑料餐盒 -->
    <g>
      <rect x="50" y="240" width="80" height="15" rx="2" ry="2" fill="url(#plasticGrad)" stroke="#bdbdbd" stroke-width="1" />
      <rect x="53" y="255" width="74" height="25" rx="0" ry="0" fill="url(#plasticGrad)" stroke="#bdbdbd" stroke-width="1" />
      <line x1="53" y1="265" x2="127" y2="265" stroke="#bdbdbd" stroke-width="0.5" />
      <line x1="90" y1="255" x2="90" y2="280" stroke="#bdbdbd" stroke-width="0.5" />
    </g>
    
    <!-- 塑料杯子 -->
    <g>
      <path d="M220,250 L230,280 L270,280 L280,250 Z" fill="url(#plasticGrad)" stroke="#bdbdbd" stroke-width="1" />
      <line x1="230" y1="265" x2="270" y2="265" stroke="#bdbdbd" stroke-width="0.5" />
      <line x1="235" y1="250" x2="238" y2="265" stroke="#bdbdbd" stroke-width="0.5" />
      <line x1="245" y1="250" x2="245" y2="265" stroke="#bdbdbd" stroke-width="0.5" />
      <line x1="255" y1="250" x2="252" y2="265" stroke="#bdbdbd" stroke-width="0.5" />
      <line x1="265" y1="250" x2="260" y2="265" stroke="#bdbdbd" stroke-width="0.5" />
    </g>
    
    <!-- 塑料包装 -->
    <path d="M150,50 C140,45 130,60 140,65 C130,70 140,85 150,80 C160,85 170,70 160,65 C170,60 160,45 150,50 Z" fill="url(#plasticGrad)" stroke="#bdbdbd" stroke-opacity="0.5" stroke-width="0.5" opacity="0.8" />
  </g>
</svg> 