<?xml version="1.0" encoding="UTF-8" standalone="no"?>
<svg width="300" height="300" xmlns="http://www.w3.org/2000/svg">
  <defs>
    <linearGradient id="bananaGrad" x1="0%" y1="0%" x2="100%" y2="100%">
      <stop offset="0%" style="stop-color:#ffeb3b;stop-opacity:1" />
      <stop offset="100%" style="stop-color:#fdd835;stop-opacity:1" />
    </linearGradient>
    <linearGradient id="orangeGrad" x1="0%" y1="0%" x2="100%" y2="100%">
      <stop offset="0%" style="stop-color:#ff9800;stop-opacity:1" />
      <stop offset="100%" style="stop-color:#f57c00;stop-opacity:1" />
    </linearGradient>
  </defs>
  <g>
    <!-- 背景 -->
    <rect width="300" height="300" fill="#fffde7" opacity="0.5" />
    
    <!-- 香蕉皮 -->
    <path d="M50,100 C50,50 150,75 200,150 C220,175 200,200 150,190 C100,180 50,150 50,100 Z" 
          fill="url(#bananaGrad)" stroke="#f9a825" stroke-width="2" />
    <path d="M60,105 C60,65 145,90 190,155 C205,175 190,190 150,180 C110,170 60,145 60,105 Z" 
          fill="#fff9c4" stroke="none" opacity="0.6" />
    <path d="M75,110 L140,110 M80,120 L145,125 M90,130 L150,140 M95,145 L155,160" 
          stroke="#f9a825" stroke-width="1" fill="none" />
    
    <!-- 香蕉末端 -->
    <path d="M50,100 C40,90 30,95 30,105 C30,115 40,120 50,100 Z" 
          fill="#795548" stroke="#5d4037" stroke-width="1.5" />
    
    <!-- 橙子皮 -->
    <path d="M180,70 C220,40 260,60 255,100 C250,140 210,160 180,145 C150,130 140,100 180,70 Z" 
          fill="url(#orangeGrad)" stroke="#e65100" stroke-width="2" />
    <path d="M182,80 C215,55 245,70 242,105 C239,140 205,155 180,140 C155,125 150,105 182,80 Z" 
          fill="#ffe0b2" stroke="none" opacity="0.6" />
    <path d="M200,65 C210,60 220,65 225,70 M210,55 C220,50 230,55 235,65" 
          stroke="#e65100" stroke-width="1.5" fill="none" />
    <path d="M245,80 C250,85 252,95 250,105 M255,90 C260,100 258,110 255,120" 
          stroke="#e65100" stroke-width="1.5" fill="none" />
    
    <!-- 苹果皮 -->
    <path d="M100,210 C80,190 80,160 110,160 C140,160 170,190 160,230 C150,270 120,230 100,210 Z" 
          fill="#d32f2f" stroke="#b71c1c" stroke-width="2" />
    <path d="M110,170 C130,168 155,190 145,225 C140,245 120,225 105,210 C90,195 90,172 110,170 Z" 
          fill="#ffcdd2" stroke="none" opacity="0.5" />
    <path d="M130,160 C130,150 125,145 120,140 C115,135 110,140 110,150" 
          stroke="#4caf50" stroke-width="2" fill="none" />
    
    <!-- 水滴与蝇子效果 -->
    <ellipse cx="220" cy="90" rx="4" ry="6" fill="#fff" opacity="0.8" />
    <ellipse cx="70" cy="125" rx="3" ry="5" fill="#fff" opacity="0.8" />
    <circle cx="160" cy="180" r="2" fill="#000" />
    <path d="M158,178 L156,176 M162,178 L164,176 M158,182 L156,184 M162,182 L164,184" 
          stroke="#000" stroke-width="0.5" fill="none" />
  </g>
</svg> 