<?xml version="1.0" encoding="UTF-8" standalone="no"?>
<svg width="300" height="300" xmlns="http://www.w3.org/2000/svg">
  <defs>
    <linearGradient id="pillGrad" x1="0%" y1="0%" x2="100%" y2="100%">
      <stop offset="0%" style="stop-color:#e57373;stop-opacity:1" />
      <stop offset="100%" style="stop-color:#c62828;stop-opacity:1" />
    </linearGradient>
    <linearGradient id="bottleGrad" x1="0%" y1="0%" x2="100%" y2="100%">
      <stop offset="0%" style="stop-color:#90caf9;stop-opacity:0.8" />
      <stop offset="100%" style="stop-color:#1976d2;stop-opacity:0.9" />
    </linearGradient>
  </defs>
  <g>
    <!-- 背景 -->
    <rect width="300" height="300" fill="#eceff1" opacity="0.5" />
    
    <!-- 药片1 -->
    <ellipse cx="70" cy="80" rx="40" ry="15" fill="url(#pillGrad)" />
    <ellipse cx="70" cy="80" rx="30" ry="10" fill="#ffcdd2" opacity="0.5" />
    <line x1="50" y1="80" x2="90" y2="80" stroke="#b71c1c" stroke-width="1" />
    
    <!-- 药片2 -->
    <ellipse cx="140" cy="100" rx="40" ry="15" fill="#7cb342" transform="rotate(30 140 100)" />
    <ellipse cx="140" cy="100" rx="30" ry="10" fill="#dcedc8" opacity="0.5" transform="rotate(30 140 100)" />
    <line x1="125" y1="92" x2="155" y2="108" stroke="#33691e" stroke-width="1" transform="rotate(30 140 100)" />
    
    <!-- 药瓶 -->
    <rect x="180" y="60" width="70" height="120" rx="10" ry="10" fill="url(#bottleGrad)" />
    <rect x="190" y="50" width="50" height="15" rx="5" ry="5" fill="#0d47a1" />
    
    <!-- 药瓶标签 -->
    <rect x="190" y="100" width="50" height="60" fill="#ffffff" stroke="#bbdefb" stroke-width="1" rx="3" ry="3" />
    <line x1="200" y1="110" x2="230" y2="110" stroke="#1565c0" stroke-width="2" />
    <line x1="200" y1="120" x2="220" y2="120" stroke="#1565c0" stroke-width="2" />
    <line x1="200" y1="130" x2="225" y2="130" stroke="#1565c0" stroke-width="2" />
    <line x1="200" y1="140" x2="215" y2="140" stroke="#1565c0" stroke-width="2" />
    
    <!-- 过期标志 -->
    <circle cx="215" cy="85" r="10" fill="#f44336" />
    <path d="M210,80 L220,90 M220,80 L210,90" stroke="#ffffff" stroke-width="2" />
    
    <!-- 药片散布 -->
    <circle cx="60" cy="180" r="10" fill="#ff5722" />
    <circle cx="60" cy="180" r="5" fill="#ffccbc" />
    
    <circle cx="90" cy="200" r="12" fill="#ff9800" />
    <circle cx="90" cy="200" r="6" fill="#ffe0b2" />
    
    <circle cx="120" cy="170" r="8" fill="#ffc107" />
    <circle cx="120" cy="170" r="4" fill="#fff8e1" />
    
    <ellipse cx="150" cy="190" rx="15" ry="8" fill="#8bc34a" />
    <ellipse cx="150" cy="190" rx="10" ry="5" fill="#f1f8e9" />
    
    <!-- 医用胶囊 -->
    <path d="M70,240 C70,220 130,220 130,240 L130,260 C130,280 70,280 70,260 Z" fill="#f44336" />
    <path d="M70,240 C70,260 130,260 130,240" fill="#ffffff" />
    <ellipse cx="100" cy="240" rx="30" ry="10" fill="none" stroke="#b71c1c" stroke-width="1" />
    <ellipse cx="100" cy="260" rx="30" ry="10" fill="none" stroke="#b71c1c" stroke-width="1" />
    
    <!-- 医用纱布 -->
    <rect x="180" y="210" width="80" height="50" fill="#ffffff" stroke="#bdbdbd" stroke-width="1" />
    <line x1="180" y1="220" x2="260" y2="220" stroke="#bdbdbd" stroke-width="1" />
    <line x1="180" y1="230" x2="260" y2="230" stroke="#bdbdbd" stroke-width="1" />
    <line x1="180" y1="240" x2="260" y2="240" stroke="#bdbdbd" stroke-width="1" />
    <line x1="180" y1="250" x2="260" y2="250" stroke="#bdbdbd" stroke-width="1" />
    <line x1="190" y1="210" x2="190" y2="260" stroke="#bdbdbd" stroke-width="1" />
    <line x1="200" y1="210" x2="200" y2="260" stroke="#bdbdbd" stroke-width="1" />
    <line x1="210" y1="210" x2="210" y2="260" stroke="#bdbdbd" stroke-width="1" />
    <line x1="220" y1="210" x2="220" y2="260" stroke="#bdbdbd" stroke-width="1" />
    <line x1="230" y1="210" x2="230" y2="260" stroke="#bdbdbd" stroke-width="1" />
    <line x1="240" y1="210" x2="240" y2="260" stroke="#bdbdbd" stroke-width="1" />
    <line x1="250" y1="210" x2="250" y2="260" stroke="#bdbdbd" stroke-width="1" />
  </g>
</svg> 