<?xml version="1.0" encoding="UTF-8" standalone="no"?>
<svg width="300" height="300" xmlns="http://www.w3.org/2000/svg">
  <g>
    <!-- 底部纸堆 -->
    <rect x="50" y="240" width="200" height="30" fill="#e0e0e0" />
    
    <!-- 纸张 1 -->
    <rect x="70" y="170" width="160" height="80" fill="#f5f5f5" stroke="#bdbdbd" stroke-width="1" />
    <line x1="90" y1="190" x2="210" y2="190" stroke="#9e9e9e" stroke-width="1" />
    <line x1="90" y1="210" x2="180" y2="210" stroke="#9e9e9e" stroke-width="1" />
    <line x1="90" y1="230" x2="200" y2="230" stroke="#9e9e9e" stroke-width="1" />
    
    <!-- 纸张 2 - 稍微倾斜 -->
    <g transform="rotate(-5 150 130)">
      <rect x="70" y="90" width="160" height="80" fill="#f5f5f5" stroke="#bdbdbd" stroke-width="1" />
      <line x1="90" y1="110" x2="210" y2="110" stroke="#9e9e9e" stroke-width="1" />
      <line x1="90" y1="130" x2="180" y2="130" stroke="#9e9e9e" stroke-width="1" />
      <line x1="90" y1="150" x2="200" y2="150" stroke="#9e9e9e" stroke-width="1" />
    </g>
    
    <!-- 纸张 3 - 更倾斜 -->
    <g transform="rotate(8 150 50)">
      <rect x="70" y="10" width="160" height="80" fill="#f5f5f5" stroke="#bdbdbd" stroke-width="1" />
      <line x1="90" y1="30" x2="210" y2="30" stroke="#9e9e9e" stroke-width="1" />
      <line x1="90" y1="50" x2="180" y2="50" stroke="#9e9e9e" stroke-width="1" />
      <line x1="90" y1="70" x2="200" y2="70" stroke="#9e9e9e" stroke-width="1" />
    </g>
    
    <!-- 装饰 - 撕碎的纸片 -->
    <path d="M240,200 L260,210 L255,180 Z" fill="#eeeeee" stroke="#bdbdbd" stroke-width="1" />
    <path d="M50,150 L65,170 L40,160 Z" fill="#eeeeee" stroke="#bdbdbd" stroke-width="1" />
  </g>
</svg> 