<?xml version="1.0" encoding="UTF-8" standalone="no"?>
<svg width="200" height="300" xmlns="http://www.w3.org/2000/svg">
  <defs>
    <linearGradient id="bottleGrad" x1="0%" y1="0%" x2="100%" y2="0%">
      <stop offset="0%" style="stop-color:#bdefff;stop-opacity:0.7" />
      <stop offset="100%" style="stop-color:#85c5e5;stop-opacity:0.9" />
    </linearGradient>
  </defs>
  <g>
    <!-- 瓶盖 -->
    <rect x="85" y="15" width="30" height="15" rx="5" ry="5" fill="#0277bd" />
    
    <!-- 瓶颈 -->
    <rect x="90" y="30" width="20" height="40" rx="5" ry="5" fill="url(#bottleGrad)" />
    
    <!-- 瓶身 -->
    <path d="M70,70 C70,65 130,65 130,70 L130,250 C130,270 70,270 70,250 Z" fill="url(#bottleGrad)" />
    
    <!-- 瓶身反光 -->
    <path d="M80,80 L80,240 C80,250 120,250 120,240 L120,80 C120,70 80,70 80,80 Z" fill="white" fill-opacity="0.2" />
    
    <!-- 瓶身标签 -->
    <rect x="75" y="120" width="50" height="70" rx="5" ry="5" fill="#e3f2fd" stroke="#bbdefb" />
    <rect x="85" y="130" width="30" height="5" fill="#2196f3" />
    <rect x="85" y="140" width="25" height="5" fill="#2196f3" />
    <rect x="85" y="150" width="20" height="5" fill="#2196f3" />
  </g>
</svg> 