<?xml version="1.0" encoding="UTF-8" standalone="no"?>
<svg width="300" height="300" xmlns="http://www.w3.org/2000/svg">
  <defs>
    <linearGradient id="leafGrad" x1="0%" y1="0%" x2="100%" y2="100%">
      <stop offset="0%" style="stop-color:#388e3c;stop-opacity:1" />
      <stop offset="100%" style="stop-color:#66bb6a;stop-opacity:1" />
    </linearGradient>
  </defs>
  <g>
    <!-- 背景 -->
    <rect width="300" height="300" fill="#f1f8e9" opacity="0.5" />
    
    <!-- 大叶子 -->
    <path d="M50,150 C50,50 150,50 200,80 C250,110 250,150 200,200 C150,250 50,250 50,150 Z" 
          fill="url(#leafGrad)" stroke="#2e7d32" stroke-width="2" />
    
    <!-- 叶脉 -->
    <path d="M125,88 L125,212" stroke="#2e7d32" stroke-width="2" fill="none" />
    <path d="M125,88 L90,120" stroke="#2e7d32" stroke-width="1.5" fill="none" />
    <path d="M125,110 L85,130" stroke="#2e7d32" stroke-width="1.5" fill="none" />
    <path d="M125,140 L80,150" stroke="#2e7d32" stroke-width="1.5" fill="none" />
    <path d="M125,170 L85,180" stroke="#2e7d32" stroke-width="1.5" fill="none" />
    <path d="M125,190 L90,200" stroke="#2e7d32" stroke-width="1.5" fill="none" />
    <path d="M125,88 L160,120" stroke="#2e7d32" stroke-width="1.5" fill="none" />
    <path d="M125,110 L170,130" stroke="#2e7d32" stroke-width="1.5" fill="none" />
    <path d="M125,140 L175,150" stroke="#2e7d32" stroke-width="1.5" fill="none" />
    <path d="M125,170 L170,180" stroke="#2e7d32" stroke-width="1.5" fill="none" />
    <path d="M125,190 L160,200" stroke="#2e7d32" stroke-width="1.5" fill="none" />
    
    <!-- 小叶子 -->
    <path d="M220,70 C240,60 260,70 260,90 C260,110 240,120 230,110 C220,100 220,70 220,70 Z" 
          fill="#66bb6a" stroke="#2e7d32" stroke-width="1.5" />
    <path d="M240,80 L240,100" stroke="#2e7d32" stroke-width="1" fill="none" />
    <path d="M240,85 L250,90" stroke="#2e7d32" stroke-width="0.8" fill="none" />
    <path d="M240,95 L250,100" stroke="#2e7d32" stroke-width="0.8" fill="none" />
    
    <!-- 小叶子2 -->
    <path d="M40,70 C20,60 10,80 20,100 C30,120 50,110 55,90 C60,70 40,70 40,70 Z" 
          fill="#7cb342" stroke="#2e7d32" stroke-width="1.5" />
    <path d="M35,80 L35,100" stroke="#2e7d32" stroke-width="1" fill="none" />
    <path d="M35,85 L25,90" stroke="#2e7d32" stroke-width="0.8" fill="none" />
    <path d="M35,95 L25,100" stroke="#2e7d32" stroke-width="0.8" fill="none" />
    
    <!-- 小叶子3 -->
    <path d="M200,240 C220,230 240,240 240,260 C240,280 220,290 210,280 C200,270 200,240 200,240 Z" 
          fill="#8bc34a" stroke="#2e7d32" stroke-width="1.5" transform="rotate(45 220 260)" />
    <path d="M220,250 L220,270" stroke="#2e7d32" stroke-width="1" fill="none" transform="rotate(45 220 260)" />
    <path d="M220,255 L230,260" stroke="#2e7d32" stroke-width="0.8" fill="none" transform="rotate(45 220 260)" />
    <path d="M220,265 L230,270" stroke="#2e7d32" stroke-width="0.8" fill="none" transform="rotate(45 220 260)" />
    
    <!-- 水滴 -->
    <ellipse cx="170" cy="100" rx="5" ry="7" fill="#e1f5fe" opacity="0.8" />
    <ellipse cx="90" cy="170" rx="6" ry="8" fill="#e1f5fe" opacity="0.8" />
  </g>
</svg> 